<svg xmlns="http://www.w3.org/2000/svg" version="1.1" xmlns:xlink="http://www.w3.org/1999/xlink" xmlns:svgjs="http://svgjs.dev/svgjs" width="100%" height="100%" viewBox="0 0 1000 600"><rect width="1000" height="600" x="0" y="0" fill="#9f7aea"/><g><rect width="333.3333333333333" height="333.3333333333333" rx="13.333333333333334" ry="13.333333333333334" y="162.07380890639047" fill="#161b21" transform="matrix(0.8938046748862103,0,0,0.8938046748862101,0,6.170237760735532)" x="139.85154724121094"/><path d="M317.5407855606186 403.74046661176146L317.5407855606186 403.74046661176146Q310.09764301779296 403.74046661176146 304.8254170499582 402.65500832426596Q299.55319108212336 401.5695500367706 295.0562924624995 399.1143467674358Q290.5593938428757 396.6591434981009 285.4680775896235 392.75666251210555L285.4680775896235 392.75666251210555L282.28923546195836 401.10435362784403L252.9560174546421 401.10435362784403L252.9560174546421 356.85900628993613L282.10832574737583 356.85900628993613Q284.9253484458758 364.4830585473443 290.791992047339 367.6102121851287Q296.65863564880226 370.7632100678534 305.1872364791233 370.7632100678534L305.1872364791233 370.7632100678534Q310.4594624469581 370.7632100678534 314.18103371837094 368.61813773780295Q317.90260498978375 366.4989096526929 317.90260498978375 362.93240385092236L317.90260498978375 362.93240385092236Q317.90260498978375 358.4871937211792 314.10350098354985 356.26458865630764Q310.2785527323756 354.0419835914362 303.37813933329767 352.12950946584897L303.37813933329767 352.12950946584897Q294.5652518086326 349.7776831762757 287.4322402050914 347.14157019235824Q280.2992286015501 344.5054572084408 274.6651832045502 341.68843450994086L274.6651832045502 341.68843450994086Q263.3970924105503 336.05438911294084 256.49667901147234 325.69084689185377Q249.5962656123944 315.3273046707667 249.5962656123944 298.1667260303632L249.5962656123944 298.1667260303632Q249.5962656123944 284.98616111077615 255.30784374421546 274.9069055840331L255.30784374421546 274.9069055840331Q260.9418891412154 264.9051827921112 271.5380295667658 259.32282588499197Q282.10832574737583 253.74046897787272 296.47772593421973 253.74046897787272L296.47772593421973 253.74046897787272Q314.0001240037884 253.74046897787272 324.18275651029285 264.9051827921112L324.18275651029285 264.9051827921112L328.8088763546185 256.3765819617902L354.8857194994486 256.3765819617902L354.8857194994486 299.7173807267852L326.99977920879286 299.7173807267852Q323.09729822279746 291.5247550806889 318.3678013987104 288.3459129530238Q313.63830457462325 285.1670708253587 305.3681461937059 285.1670708253587L305.3681461937059 285.1670708253587Q299.11383891813716 285.1670708253587 295.650710096128 287.38967589023025Q292.21342551905923 289.6122809551018 292.21342551905923 293.51476194109716L292.21342551905923 293.51476194109716Q292.21342551905923 297.88243933601916 297.20136479254995 300.1567328907714L297.20136479254995 300.1567328907714Q302.11177133121964 302.5344034252852 311.1831013052884 304.5244102856934L311.1831013052884 304.5244102856934Q327.10315618855435 308.1684488222851 338.6296894319579 313.6991172395236L338.6296894319579 313.6991172395236Q349.89778022595783 319.22978565676215 356.6689724003339 329.3607296733859Q363.44016457471 339.49167369000963 363.44016457471 355.48926130809673L363.44016457471 355.48926130809673Q363.44016457471 369.0316456568489 357.80611917771006 380.0154497565047L357.80611917771006 380.0154497565047Q352.0686968009486 391.025098101101 341.5759333551597 397.3827823564312Q331.0831699093708 403.74046661176146 317.5407855606186 403.74046661176146Z " fill="#9f7aea" transform="matrix(0.8938046748862103,0,0,0.8938046748862101,0,6.170237760735532)"/><path d="M612.0761179315798 376.3947317694907L612.0761179315798 376.3947317694907Q605.9898967485852 376.3947317694907 601.6788234106307 375.5071578469706Q597.3677500726761 374.6195839244506 593.6906581079502 372.61197624256Q590.0135661432244 370.6043685606694 585.8504217923564 367.41332898208543L585.8504217923564 367.41332898208543L583.2510981621191 374.23919510051337L559.2654695416368 374.23919510051337L559.2654695416368 338.05999140160077L583.1031691750325 338.05999140160077Q585.4066348310964 344.2941415716821 590.2037605551928 346.85119977703755Q595.0008862792893 349.42939069483384 601.974681384804 349.42939069483384L601.974681384804 349.42939069483384Q606.2857547227586 349.42939069483384 609.3288653142558 347.67537556223465Q612.3719759057532 345.9424931420765 612.3719759057532 343.02617882522486L612.3719759057532 343.02617882522486Q612.3719759057532 339.3913522853809 609.265467176933 337.5739390154589Q606.1378257356719 335.7565257455368 600.4953915139372 334.19270502490633L600.4953915139372 334.19270502490633Q593.289136571572 332.26962819277946 587.4565079378689 330.11409152380224Q581.6238793041657 327.958554854825 577.0169479920378 325.65508919876106L577.0169479920378 325.65508919876106Q567.803085367782 321.04815788663313 562.1606511460475 312.57394019781077Q556.5182169243128 304.0997225089884 556.5182169243128 290.0676014481952L556.5182169243128 290.0676014481952Q556.5182169243128 279.28991810330876 561.1885463737635 271.04816025133687L561.1885463737635 271.04816025133687Q565.7954776858915 262.8698005366879 574.4598897866824 258.30513464944187Q583.1031691750325 253.7404687621959 594.8529572922026 253.7404687621959L594.8529572922026 253.7404687621959Q609.1809363271692 253.7404687621959 617.5072250289049 262.8698005366879L617.5072250289049 262.8698005366879L621.2899805558357 255.89600543117317L642.6128874087578 255.89600543117317L642.6128874087578 291.3355641946524L619.8106906849689 291.3355641946524Q616.6196511063849 284.63649435087007 612.7523647296904 282.03717072063273Q608.8850783529958 279.4378470903955 602.1226103718907 279.4378470903955L602.1226103718907 279.4378470903955Q597.00849396118 279.4378470903955 594.1767104940922 281.2552603603175Q591.3660597394453 283.0726736302395 591.3660597394453 286.26371320882345L591.3660597394453 286.26371320882345Q591.3660597394453 289.8351416113446 595.4446732405494 291.6948203061486L595.4446732405494 291.6948203061486Q599.4598886043306 293.63902985071627 606.8774706711052 295.26624870866976L606.8774706711052 295.26624870866976Q619.8952215347326 298.2459611628442 629.320411283398 302.7683616252083L629.320411283398 302.7683616252083Q638.5342739076538 307.2907620875724 644.0710445671837 315.57478536442613Q649.6078152267135 323.85880864128 649.6078152267135 336.9399576422303L649.6078152267135 336.9399576422303Q649.6078152267135 348.01349896129 645.0008839145855 356.99490174869527L645.0008839145855 356.99490174869527Q640.3094217526939 365.9974372485415 631.7295405016666 371.19608450901603Q623.1496592506396 376.3947317694907 612.0761179315798 376.3947317694907ZM714.7599676821735 351.88078533798443L714.7599676821735 374.23919510051337L662.3719735410494 374.23919510051337L662.3719735410494 351.88078533798443L671.8182960021558 351.88078533798443L671.8182960021558 283.36853160441285L662.3719735410494 283.36853160441285L662.3719735410494 263.1656585108612L707.5537127398082 258.26286922455995L707.5537127398082 306.2552591779656Q710.448894344219 300.9086829304043 717.697414711466 297.02026384126884Q724.9459350787131 293.11071203969243 733.7794088790317 293.11071203969243L733.7794088790317 293.11071203969243Q746.7126288928954 293.11071203969243 753.3271678869138 300.7184885184357Q759.9205741684913 308.34739770962005 759.9205741684913 322.0836607962399L759.9205741684913 322.0836607962399L759.9205741684913 351.88078533798443L769.3668966295976 351.88078533798443L769.3668966295976 374.23919510051337L724.1217592935159 374.23919510051337L724.1217592935159 325.71848733608385Q724.1217592935159 321.25948501104267 721.5647010881605 318.3643034066321Q718.9865101703642 315.46912180222137 715.6475416046935 315.46912180222137L715.6475416046935 315.46912180222137Q711.8647860777628 315.46912180222137 709.7092494087856 318.0684454324587Q707.5537127398082 320.6677690626959 707.5537127398082 325.0633732504143L707.5537127398082 325.0633732504143L707.5537127398082 351.88078533798443L714.7599676821735 351.88078533798443ZM821.142042109934 375.5705559842935L821.142042109934 375.5705559842935Q807.6382388601646 375.5705559842935 797.6002004507117 370.6043685606694L797.6002004507117 370.6043685606694Q787.414233054172 365.7015792743681 781.7717988324374 356.191858675939Q776.1293646107027 346.6821380775099 776.1293646107027 333.6009890765596L776.1293646107027 333.6009890765596Q776.1293646107027 320.60437092537313 781.7717988324374 311.538437288204L781.7717988324374 311.538437288204Q787.414233054172 302.3879728012711 797.6002004507117 297.7599087767022Q807.7861678472512 293.11071203969243 821.142042109934 293.11071203969243L821.142042109934 293.11071203969243Q834.8994379089949 293.11071203969243 845.0431398806526 297.865572338907Q855.1868418523103 302.62043263812154 860.744745224281 311.6441008504088Q866.3237813086928 320.6677690626959 866.3237813086928 333.6009890765596L866.3237813086928 333.6009890765596Q866.3237813086928 346.6821380775099 860.744745224281 356.191858675939L860.744745224281 356.191858675939Q855.1023110025465 365.7015792743681 844.8952108935658 370.62550127311033Q834.6669780721444 375.5705559842935 821.142042109934 375.5705559842935ZM821.142042109934 353.888393019875L821.142042109934 353.888393019875Q826.0448313962353 353.888393019875 828.432827902063 349.04900187089663L828.432827902063 349.04900187089663Q830.7362935581269 344.3786724214459 830.7362935581269 333.6009890765596L830.7362935581269 333.6009890765596Q830.7362935581269 323.71087965419326 828.4750933269448 319.29414275403394Q826.1927603833218 314.87740585387473 821.142042109934 314.87740585387473L821.142042109934 314.87740585387473Q816.3237836733966 314.87740585387473 814.0203180173327 319.29414275403394Q811.7168523612687 323.71087965419326 811.7168523612687 333.6009890765596L811.7168523612687 333.6009890765596Q811.7168523612687 344.14621258459545 814.0837161546555 349.04900187089663L814.0837161546555 349.04900187089663Q816.4717126604831 353.888393019875 821.142042109934 353.888393019875ZM931.4759337641527 381.3820519055557L931.4759337641527 403.74046166808466L876.721075829642 403.74046166808466L876.721075829642 381.21299020602805L886.315327277835 381.21299020602805L886.315327277835 317.6246584711987L876.721075829642 317.6246584711987L876.721075829642 297.71764335182036L921.9028150284008 293.11071203969243L921.9028150284008 305.7480740793827Q925.6855705553315 300.4648959691443 931.7083936010033 296.7878040044184Q937.7100839342341 293.11071203969243 945.8250455115603 293.11071203969243L945.8250455115603 293.11071203969243Q956.433667156919 293.11071203969243 963.9357800734575 298.60521727434036L963.9357800734575 298.60521727434036Q971.4378929899962 304.0997225089884 975.1995158044859 313.398115983008Q978.9611386189757 322.67537674458663 978.9611386189757 334.0447760378196L978.9611386189757 334.0447760378196Q978.9611386189757 345.3296444812888 975.2417812293678 354.9238959294818L975.2417812293678 354.9238959294818Q971.5224238397599 364.34908567814705 963.9780454983395 369.9703871874408Q956.433667156919 375.5705559842935 945.6771165244737 375.5705559842935L945.6771165244737 375.5705559842935Q938.1538708954942 375.5705559842935 932.0253842876176 372.6331089550009Q925.8968976797411 369.7167946381493 921.9028150284008 365.4057213001947L921.9028150284008 365.4057213001947L921.9028150284008 381.3820519055557L931.4759337641527 381.3820519055557ZM932.5959675235234 353.888393019875L932.5959675235234 353.888393019875Q939.2739046548647 353.888393019875 942.4649442334487 348.54181677231384Q945.6771165244737 343.1741078123116 945.6771165244737 334.4885629990796L945.6771165244737 334.4885629990796Q945.6771165244737 325.5705583489972 942.1690862592753 320.2239821014359Q938.6821887065181 314.87740585387473 933.0397544847834 314.87740585387473L933.0397544847834 314.87740585387473Q929.2569989578527 314.87740585387473 926.1927556539143 316.77934997356056Q923.1496450624171 318.66016138080533 921.9028150284008 321.7032719723027L921.9028150284008 321.7032719723027L921.9028150284008 347.48518115026616Q925.2417835940715 353.888393019875 932.5959675235234 353.888393019875Z " fill="#161b21" transform="matrix(0.8938046748862103,0,0,0.8938046748862101,0,6.170237760735532)"/></g></svg>